PathFileType	4	(X/Y/Z)	12_1_29_p1_0-248.trc
DataRate	CameraRate	NumFrames	NumMarkers	Units	OrigDataRate	OrigDataStartFrame	OrigNumFrames
57.0	57.0	4	27	m	57.0	0	249
Frame#	Time	RHip			RKnee			RAnkle			RBigToe			RSmallToe			RHeel			LHip			LKnee			LAnkle			LBigToe			LSmallToe			LHeel			Neck			Head			Nose			RShoulder			RElbow			RWrist			RThumb			RIndex			RPinky			LShoulder			LElbow			LWrist			LThumb			LIndex			LPinky			
		X1	Y1	Z1	X2	Y2	Z2	X3	Y3	Z3	X4	Y4	Z4	X5	Y5	Z5	X6	Y6	Z6	X7	Y7	Z7	X8	Y8	Z8	X9	Y9	Z9	X10	Y10	Z10	X11	Y11	Z11	X12	Y12	Z12	X13	Y13	Z13	X14	Y14	Z14	X15	Y15	Z15	X16	Y16	Z16	X17	Y17	Z17	X18	Y18	Z18	X19	Y19	Z19	X20	Y20	Z20	X21	Y21	Z21	X22	Y22	Z22	X23	Y23	Z23	X24	Y24	Z24	X25	Y25	Z25	X26	Y26	Z26	X27	Y27	Z27	
0	0.0	0.4444814166190571	0.4826566376705796	1.034602814092404	0.4853452105694573	0.5429507514463705	1.5092040202666068	0.5003984581938636	0.5961431718476744	1.9400907365139615	0.4779334389708194	0.3558446869595288	1.914771755094372	0.5290462866584783	0.387685610907451	1.9043877118948582	0.48647670291121964	0.6566355722429288	2.031818250710294	0.21418522458163794	0.5468971736754503	1.0878700912535977	0.26871893879593656	0.5477139274703869	1.5359259068806397	0.3320758517400421	0.6006116259696135	1.9696372150468495	0.33215253687866025	0.38135865140620273	1.94632849361493	0.2635259456144155	0.4179981687777361	1.9445653116057346	0.3434355661727218	0.6464145827060529	2.041883508789018	0.2554841044532118	0.554262749839942	0.42578342940231334	0.24053529559366413	0.4998175593176533	0.1659967638038063	0.25236816421167907	0.45645433278616354	0.2918989270084666	0.44979488780999705	0.5647990303145319	0.5318860076064942	0.515152201598185	0.5285058031385451	0.8015352994183873	0.5573460004953532	0.43393265333267805	1.046873658723963	0.5238878088195854	0.4381183888410623	1.207501907596748	0.5408430127267887	0.3929045661187683	1.194204510676976	0.5814650069298506	0.44491154912982084	1.2048000341050447	0.10061820123277165	0.5703091346129471	0.5442921120992603	0.073164874571969	0.5445078654556632	0.8416591283834984	0.09879552833925208	0.5068023289301151	1.1227383791167278	0.17523080400256807	0.4718778067451928	1.2104394497607598	0.14266412300665743	0.4387420689882852	1.2159050234965687	0.09873861975479138	0.5015453008633961	1.2391763113764895
1	0.017543859649122806	0.4444825766882369	0.48251282867295187	1.0344729068746998	0.48427655742011066	0.5411433756994297	1.4998233717157938	0.5072859874524641	0.5936315364313883	1.9170435162753723	0.4740298044279373	0.3782147160219327	1.93098578995171	0.5331789078200805	0.398967997291854	1.911499067252986	0.48402318649341264	0.6537297977371892	2.013745010080194	0.21867340380926392	0.5334878575020618	1.0824697081372499	0.2732109289816947	0.5505328996584526	1.53668390215595	0.3310553818485662	0.6025951870908638	1.9650118855759218	0.33701107843142875	0.3849656128184875	1.948234862815117	0.2667271106988884	0.4299306211215869	1.952520552853815	0.34379420649469744	0.6509627564934276	2.023777067925957	0.25549124114573646	0.5541213490856943	0.425796869391105	0.240963233575435	0.49910282347576257	0.16927222580261492	0.25212202863531136	0.45534195594855376	0.2914838748329902	0.44984462723649227	0.5649261140850388	0.5317899012186987	0.5117478143110248	0.5285624143209228	0.8059786428969677	0.5572894633489139	0.43426892408059004	1.0470306538647096	0.5237127509019162	0.4386446683025114	1.2076389943844297	0.5417753428637282	0.4176979286037106	1.2048162999739707	0.5772434799308984	0.4447590864983876	1.2056248633376783	0.10072178098470815	0.5706286987313529	0.5441688337284319	0.07590527215939695	0.556330209458031	0.8442332183486031	0.09786784796516206	0.505267716233416	1.1177257563291652	0.17524535019893403	0.47139814208223896	1.2099936570479517	0.1466516035305126	0.44035053216656683	1.2158556702161045	0.09875015168545904	0.5010005302270596	1.2389475979424514
2	0.03508771929824561	0.44838408528436585	0.4839132178203354	1.034382746597269	0.4839943393235569	0.541576792570213	1.5041992772167863	0.5036158616629208	0.6093949966637066	1.927958727713596	0.47395148384746993	0.37824360848366595	1.9310361093274737	0.5330253171568241	0.3990891057832823	1.9114519555421468	0.47981745080926885	0.651792937328447	2.013333748038757	0.21931008436082317	0.5320863972834449	1.0860489174841375	0.26871052691531855	0.5475837002491768	1.535808565256764	0.33120232755974943	0.6026907332990921	1.9651561198627117	0.3371814191355667	0.384681621913917	1.9481004428405262	0.2674641330553854	0.42927314729288973	1.9478154584177754	0.34395667017040843	0.6505877902975483	2.023965325454507	0.25547984703416354	0.554088228672765	0.4257693189184348	0.24089286573772548	0.49903370612571984	0.1692463922198014	0.2520937015158122	0.4553584129405434	0.29154511232685515	0.44985243438688954	0.5649932390663662	0.5318147128824686	0.5117773603976299	0.5284410174888605	0.8059379899586641	0.5571274487949617	0.4341288184225544	1.0510353591320012	0.5234475368573601	0.4379517867838625	1.2075364094504815	0.5378429781672286	0.40621155724502267	1.200518198484489	0.5813381557483165	0.444459064465637	1.2049427515293594	0.10070466207592953	0.5707331840617256	0.5441375489363303	0.0731489147405225	0.544277366934448	0.8414163108074665	0.09878298916596247	0.5065062085046911	1.1225921851783178	0.17532026409811205	0.47171369951971537	1.2101957720685945	0.1466503866858881	0.4404998582810598	1.215917384202707	0.0983167182260947	0.5011940348747459	1.2427242914099756
3	0.05263157894736842	0.44847259145608054	0.48390066072285043	1.0343947438264618	0.4840035989528838	0.5416674303947425	1.5041751340511837	0.5030546894978593	0.6101538519874162	1.9331150387918778	0.47396069576172356	0.3781586492358884	1.9309937426513164	0.5329983133338392	0.3989164385810412	1.911344099399253	0.47972392597566255	0.6514481298399759	2.0131414701275996	0.21871138787133726	0.5334544400714187	1.0825219144815958	0.2731869263966596	0.5504117370435737	1.5365712790783794	0.33116543878461	0.6029077882611948	1.965156740153035	0.3372699403707182	0.38469940798750557	1.948195290027347	0.2674081956499318	0.4292333293818909	1.94775182098604	0.34409371609992917	0.6509078690467389	2.0242665116984018	0.2555493541395877	0.5541806189638367	0.4258123052846732	0.2409678846000889	0.4991434898531885	0.16928723127274348	0.25209989027664237	0.45537171775989405	0.2915295035565751	0.4498965589370166	0.5649663092703644	0.5318142597858885	0.5150575072611192	0.5146180213573532	0.801722140870056	0.5573803696875256	0.43405467897371713	1.0469145608955215	0.5234647665591696	0.437678929677246	1.207360798880204	0.540566925976844	0.39259094252185306	1.1939651078600222	0.5812654344341225	0.44443383008823256	1.2048595053000795	0.10072650983036546	0.5707834113408107	0.5441318139835996	0.07319774137970975	0.5447253143697699	0.837570226960946	0.09884942006904848	0.5065086677682176	1.122575972756653	0.17529015391220243	0.47175300467160547	1.2102411494099954	0.1466994341547064	0.44045036921392033	1.21599099089507	0.09868156089165375	0.5012027601374897	1.2390912260627949
